<svg width="211" height="28" viewBox="0 0 211 28" fill="none" xmlns="http://www.w3.org/2000/svg">
<path d="M0.241211 0.525391H17.3213V22H12.9854V4.12891H4.57715V22H0.241211V0.525391ZM21.5986 6.44336H25.4365V8.72852C25.9346 7.94727 26.6084 7.3125 27.458 6.82422C28.3076 6.33594 29.25 6.0918 30.2852 6.0918C32.0918 6.0918 33.625 6.7998 34.8848 8.21582C36.1445 9.63184 36.7744 11.6045 36.7744 14.1338C36.7744 16.7314 36.1396 18.7529 34.8701 20.1982C33.6006 21.6338 32.0625 22.3516 30.2559 22.3516C29.3965 22.3516 28.6152 22.1807 27.9121 21.8389C27.2188 21.4971 26.4863 20.9111 25.7148 20.0811V27.918H21.5986V6.44336ZM25.6709 13.958C25.6709 15.7061 26.0176 17 26.7109 17.8398C27.4043 18.6699 28.249 19.085 29.2451 19.085C30.2021 19.085 30.998 18.7041 31.6328 17.9424C32.2676 17.1709 32.585 15.9111 32.585 14.1631C32.585 12.5322 32.2578 11.3213 31.6035 10.5303C30.9492 9.73926 30.1387 9.34375 29.1719 9.34375C28.166 9.34375 27.3311 9.73438 26.667 10.5156C26.0029 11.2871 25.6709 12.4346 25.6709 13.958ZM39.1035 14.002C39.1035 12.6348 39.4404 11.3115 40.1143 10.0322C40.7881 8.75293 41.7402 7.77637 42.9707 7.10254C44.2109 6.42871 45.5928 6.0918 47.1162 6.0918C49.4697 6.0918 51.3984 6.8584 52.9023 8.3916C54.4062 9.91504 55.1582 11.8438 55.1582 14.1777C55.1582 16.5312 54.3965 18.4844 52.873 20.0371C51.3594 21.5801 49.4502 22.3516 47.1455 22.3516C45.7197 22.3516 44.3574 22.0293 43.0586 21.3848C41.7695 20.7402 40.7881 19.7979 40.1143 18.5576C39.4404 17.3076 39.1035 15.7891 39.1035 14.002ZM43.3223 14.2217C43.3223 15.7646 43.6885 16.9463 44.4209 17.7666C45.1533 18.5869 46.0566 18.9971 47.1309 18.9971C48.2051 18.9971 49.1035 18.5869 49.8262 17.7666C50.5586 16.9463 50.9248 15.7549 50.9248 14.1924C50.9248 12.6689 50.5586 11.4971 49.8262 10.6768C49.1035 9.85645 48.2051 9.44629 47.1309 9.44629C46.0566 9.44629 45.1533 9.85645 44.4209 10.6768C43.6885 11.4971 43.3223 12.6787 43.3223 14.2217ZM71.5498 11.043L67.4922 11.7754C67.3555 10.9648 67.043 10.3545 66.5547 9.94434C66.0762 9.53418 65.4512 9.3291 64.6797 9.3291C63.6543 9.3291 62.834 9.68555 62.2188 10.3984C61.6133 11.1016 61.3105 12.2832 61.3105 13.9434C61.3105 15.7891 61.6182 17.0928 62.2334 17.8545C62.8584 18.6162 63.6934 18.9971 64.7383 18.9971C65.5195 18.9971 66.1592 18.7773 66.6572 18.3379C67.1553 17.8887 67.5068 17.1221 67.7119 16.0381L71.7549 16.7266C71.335 18.582 70.5293 19.9834 69.3379 20.9307C68.1465 21.8779 66.5498 22.3516 64.5479 22.3516C62.2725 22.3516 60.4561 21.6338 59.0986 20.1982C57.751 18.7627 57.0771 16.7754 57.0771 14.2363C57.0771 11.668 57.7559 9.6709 59.1133 8.24512C60.4707 6.80957 62.3066 6.0918 64.6211 6.0918C66.5156 6.0918 68.0195 6.50195 69.1328 7.32227C70.2559 8.13281 71.0615 9.37305 71.5498 11.043ZM72.8389 6.44336H86.916V9.76855H81.9355V22H77.8193V9.76855H72.8389V6.44336ZM88.0293 14.002C88.0293 12.6348 88.3662 11.3115 89.04 10.0322C89.7139 8.75293 90.666 7.77637 91.8965 7.10254C93.1367 6.42871 94.5186 6.0918 96.042 6.0918C98.3955 6.0918 100.324 6.8584 101.828 8.3916C103.332 9.91504 104.084 11.8438 104.084 14.1777C104.084 16.5312 103.322 18.4844 101.799 20.0371C100.285 21.5801 98.376 22.3516 96.0713 22.3516C94.6455 22.3516 93.2832 22.0293 91.9844 21.3848C90.6953 20.7402 89.7139 19.7979 89.04 18.5576C88.3662 17.3076 88.0293 15.7891 88.0293 14.002ZM92.248 14.2217C92.248 15.7646 92.6143 16.9463 93.3467 17.7666C94.0791 18.5869 94.9824 18.9971 96.0566 18.9971C97.1309 18.9971 98.0293 18.5869 98.752 17.7666C99.4844 16.9463 99.8506 15.7549 99.8506 14.1924C99.8506 12.6689 99.4844 11.4971 98.752 10.6768C98.0293 9.85645 97.1309 9.44629 96.0566 9.44629C94.9824 9.44629 94.0791 9.85645 93.3467 10.6768C92.6143 11.4971 92.248 12.6787 92.248 14.2217ZM115.773 0.525391H120.109V18.3965H126.32V0.525391H130.642V18.3965H137.058V0.525391H141.379L141.408 22.0146L115.773 22V0.525391ZM145.656 6.44336H149.758V12.8008C150.441 12.7227 150.925 12.5127 151.208 12.1709C151.491 11.8291 151.833 11.082 152.233 9.92969C152.761 8.39648 153.337 7.41504 153.962 6.98535C154.587 6.55566 155.407 6.34082 156.423 6.34082C156.735 6.34082 157.277 6.36523 158.049 6.41406L158.063 9.13867C156.979 9.13867 156.286 9.24121 155.983 9.44629C155.681 9.66113 155.354 10.3008 155.002 11.3652C154.523 12.8008 153.835 13.6846 152.937 14.0166C154.235 14.3779 155.334 15.5059 156.232 17.4004C156.281 17.498 156.335 17.6006 156.394 17.708L158.693 22H154.27L152.219 17.5029C151.799 16.5947 151.433 16.0137 151.12 15.7598C150.817 15.4961 150.363 15.3643 149.758 15.3643V22H145.656V6.44336ZM159.484 14.002C159.484 12.6348 159.821 11.3115 160.495 10.0322C161.169 8.75293 162.121 7.77637 163.352 7.10254C164.592 6.42871 165.974 6.0918 167.497 6.0918C169.851 6.0918 171.779 6.8584 173.283 8.3916C174.787 9.91504 175.539 11.8438 175.539 14.1777C175.539 16.5312 174.777 18.4844 173.254 20.0371C171.74 21.5801 169.831 22.3516 167.526 22.3516C166.101 22.3516 164.738 22.0293 163.439 21.3848C162.15 20.7402 161.169 19.7979 160.495 18.5576C159.821 17.3076 159.484 15.7891 159.484 14.002ZM163.703 14.2217C163.703 15.7646 164.069 16.9463 164.802 17.7666C165.534 18.5869 166.438 18.9971 167.512 18.9971C168.586 18.9971 169.484 18.5869 170.207 17.7666C170.939 16.9463 171.306 15.7549 171.306 14.1924C171.306 12.6689 170.939 11.4971 170.207 10.6768C169.484 9.85645 168.586 9.44629 167.512 9.44629C166.438 9.44629 165.534 9.85645 164.802 10.6768C164.069 11.4971 163.703 12.6787 163.703 14.2217ZM179.128 6.44336H192.912V22H188.811V9.7832H183.2V16.7705C183.2 18.5479 182.995 19.7979 182.585 20.5205C182.175 21.2334 181.721 21.7021 181.223 21.9268C180.725 22.1514 179.924 22.2637 178.82 22.2637C178.166 22.2637 177.302 22.1758 176.228 22V18.9678C176.315 18.9678 176.545 18.9775 176.916 18.9971C177.346 19.0264 177.678 19.041 177.912 19.041C178.469 19.041 178.811 18.8604 178.938 18.499C179.064 18.1279 179.128 17.1074 179.128 15.4375V6.44336ZM200.163 11.1895L196.428 10.5156C196.848 9.01172 197.57 7.89844 198.596 7.17578C199.621 6.45312 201.145 6.0918 203.166 6.0918C205.002 6.0918 206.369 6.31152 207.268 6.75098C208.166 7.18066 208.796 7.73242 209.157 8.40625C209.528 9.07031 209.714 10.2959 209.714 12.083L209.67 16.8877C209.67 18.2549 209.733 19.2656 209.86 19.9199C209.997 20.5645 210.246 21.2578 210.607 22H206.535C206.428 21.7266 206.296 21.3213 206.14 20.7842C206.071 20.54 206.022 20.3789 205.993 20.3008C205.29 20.9844 204.538 21.4971 203.737 21.8389C202.937 22.1807 202.082 22.3516 201.174 22.3516C199.572 22.3516 198.308 21.917 197.38 21.0479C196.462 20.1787 196.003 19.0801 196.003 17.752C196.003 16.873 196.213 16.0918 196.633 15.4082C197.053 14.7148 197.639 14.1875 198.391 13.8262C199.152 13.4551 200.246 13.1328 201.672 12.8594C203.596 12.498 204.929 12.1611 205.671 11.8486V11.4385C205.671 10.6475 205.476 10.0859 205.085 9.75391C204.694 9.41211 203.957 9.24121 202.873 9.24121C202.141 9.24121 201.569 9.3877 201.159 9.68066C200.749 9.96387 200.417 10.4668 200.163 11.1895ZM205.671 14.5293C205.144 14.7051 204.309 14.915 203.166 15.1592C202.023 15.4033 201.276 15.6426 200.925 15.877C200.388 16.2578 200.119 16.7412 200.119 17.3271C200.119 17.9033 200.334 18.4014 200.764 18.8213C201.193 19.2412 201.74 19.4512 202.404 19.4512C203.146 19.4512 203.854 19.207 204.528 18.7188C205.026 18.3477 205.354 17.8936 205.51 17.3564C205.617 17.0049 205.671 16.3359 205.671 15.3496V14.5293Z" fill="white"/>
</svg>
